<svg xmlns="http://www.w3.org/2000/svg" viewBox="0 0 314.95 143.13"><defs><style>.cls-1,.cls-4{fill:#e63723;}.cls-2,.cls-3{fill:#343333;}.cls-3,.cls-4{fill-rule:evenodd;}</style></defs><g id="Layer_2" data-name="Layer 2"><g id="Capa_1" data-name="Capa 1"><path class="cls-1" d="M77.29,8.07A66.36,66.36,0,0,1,87,5c22.72-5.86,45.58-6.7,68.54-1.7,15.38,3.35,28.44,11.15,40,21.64a107.83,107.83,0,0,1,18.73,22.19A3.84,3.84,0,0,0,217.15,49a152,152,0,0,1,26,7c14.38,5.16,22.69,15.41,26.09,30,.58,2.5,1,5.06,1.46,7.58.2,1-.11,1.36-1.18,1.34-3.48,0-7-.06-10.44,0-1.08,0-1.4-.42-1.66-1.38a135,135,0,0,0-6.27-17.75C247.27,66.92,240.7,60.92,232,57a89.25,89.25,0,0,0-27.49-7.22,3.13,3.13,0,0,1-2.43-1.5c-11.31-15.8-25.19-28.7-42.65-37.48-12.94-6.51-26.64-9.63-41.17-8.54a98.87,98.87,0,0,0-21.87,4A40,40,0,0,1,92,7.36,65.32,65.32,0,0,1,77.29,8.07Z"/><path class="cls-1" d="M187.16,116.62v-.11c2,0,4.08.16,6.09,0,3-.29,4.53-2.07,4.4-4.63-.12-2.35-2-4-4.79-4.12-3.71-.09-7.42,0-11.13,0-.93,0-1.08.36-1.06,1.16,0,2.16.08,4.31,0,6.46,0,1.2.46,1.39,1.48,1.35C183.81,116.57,185.49,116.62,187.16,116.62Zm0,7.63v-.06c-1.8,0-3.6,0-5.4,0-.77,0-1.05.23-1,1,0,2.58,0,5.16,0,7.74,0,.58,0,1.06.82,1,4-.14,8,.33,12-.38,2.9-.52,4.21-2.33,3.91-5.25-.23-2.29-2.06-3.87-4.94-4.07C190.71,124.15,188.91,124.25,187.11,124.25Zm15.74-3.39c5.34,2,5.73,6.31,5.56,10.75s-2.75,7.27-6.8,8.81a17.53,17.53,0,0,1-6.34,1.1c-7.79,0-15.58,0-23.38,0-1.3,0-1.56-.41-1.55-1.62q.06-19.15,0-38.31c0-1.13.23-1.54,1.46-1.53,8.4.05,16.79,0,25.18,0,7.92.08,12.3,5.19,11.1,12.85A10.73,10.73,0,0,1,202.85,120.86Z"/><path class="cls-2" d="M16.69,108.23c-2,0-4.07,0-6.1,0-1.12,0-1.63.22-1.53,1.48.12,1.48,0,3,0,4.49,0,3.41,0,3.43,3.48,3.41,3.65,0,7.31.08,11-.14a4.23,4.23,0,0,0,4.28-4.57c0-2.87-1.69-4.49-5-4.63C20.77,108.16,18.73,108.23,16.69,108.23ZM42.55,143.1c-3.84,0-7.3,0-10.77,0-1,0-1.16-.67-1.51-1.25-3-4.94-6-9.88-9-14.86a2.39,2.39,0,0,0-2.44-1.38c-2.51.12-5,.1-7.54,0-1.23,0-1.64.25-1.61,1.56.08,4.83,0,9.67.05,14.51,0,1.06-.21,1.46-1.35,1.41-2.38-.09-4.77-.06-7.16,0C.33,143.14,0,142.94,0,142q0-21.09,0-42.19c0-1.09.4-1.24,1.33-1.23,8.52,0,17-.05,25.55,0a14,14,0,0,1,13.39,10.81c1.22,6.07-2.07,12.14-8.17,14.85-1.15.51-1,.82-.46,1.72C35.24,131.53,38.76,137.13,42.55,143.1Z"/><path class="cls-2" d="M64.81,116.38c3.78,0,7.55.06,11.33,0,1.23,0,1.48.37,1.49,1.52v4.32c0,1.38-.29,1.81-1.74,1.79-7.44-.08-14.88,0-22.31-.06-1.36,0-1.69.22-1.45,1.66C53,131,56.27,134,61.78,134c5,0,10,0,14.93,0,1.09,0,1.39.25,1.4,1.39,0,1.67.06,3.29,0,4.85,0,1.17-.36,1.38-1.42,1.37-5.81-.05-11.63,0-17.45,0-7.31-.08-13-4.33-15.4-11.56A29.52,29.52,0,0,1,44,110.88a15.57,15.57,0,0,1,15-10.74c5.82-.06,11.64,0,17.45,0,1.12,0,1.36.18,1.38,1.38,0,1.62.08,3.27,0,4.86-.05,1.13-.29,1.39-1.39,1.37-5.1-.06-10.19,0-15.29,0a8.92,8.92,0,0,0-9,7.62c-.17,1,.1,1.1.94,1.09C57,116.37,60.91,116.38,64.81,116.38Z"/><polygon class="cls-3" points="85.51 100.12 97.32 100.12 114.39 128.31 114.26 100.18 123.89 100.12 123.89 141.56 113.14 141.5 95.32 111.56 95.24 141.56 85.51 141.56 85.51 100.12"/><polygon class="cls-3" points="127.79 100.12 166.45 100.12 166.45 107.65 151.38 107.56 151.57 141.56 143.04 141.56 142.85 107.47 127.79 107.45 127.79 100.12"/><rect class="cls-1" x="259.51" y="100.12" width="9.75" height="41.44"/><path class="cls-4" d="M272.12,100.12l11.95,0,8.78,12.14,8.63-12.11h11.65L298.63,120s16.44,21.58,16.32,21.55-12.32,0-12.32,0l-9.87-13.7s-9.66,13.76-9.78,13.7-11.88,0-11.88,0L287,120Z"/><path class="cls-4" d="M238,100.12l-11.72,0L210,141.56h10.78l2.94-8.35H241.6l3.44,8.35h10.53Zm-.4,26c-3.41,0-6.83,0-10.24,0-.89,0-1-.26-.68-1.06,1.8-4.81,3.54-9.64,5.5-15,2.17,5.35,4.14,10.21,6.1,15.06C238.56,125.8,238.4,126.11,237.61,126.11Z"/></g></g></svg>